<svg xmlns="http://www.w3.org/2000/svg" width="842.89" height="594.37" viewBox="0 0 842.89 594.37"><title>template</title><polygon points="1.41 0 842.27 0 842.27 594.37 0 594.37 1.41 0" style="fill:none"/><polygon points="55.22 46.75 789.07 46.75 789.07 543.23 58.61 543.23 55.22 46.75" style="fill:#e6e8e9"/><polygon points="798.41 270.15 798.41 211.4 730.51 238.61 798.41 270.15" style="fill:#4c1339"/><polygon points="730.51 301.49 730.51 258.9 779.73 278.63 730.51 301.49" style="fill:#470a45"/><polygon points="808.59 255.62 808.59 225.93 842.89 239.68 808.59 255.62" style="fill:#470a45"/><polygon points="45.88 213.01 45.88 271.76 113.79 244.56 45.88 213.01" style="fill:#ae1f23"/><polygon points="35.71 227.54 35.71 257.23 1.41 243.48 35.71 227.54" style="fill:#c72127"/><rect x="175.32" y="488.39" width="167.39" height="1.05" style="fill:#4e4e4e"/><rect x="501.59" y="488.39" width="167.39" height="1.05" style="fill:#4e4e4e"/><rect x="210.14" y="241.3" width="410.83" height="0.98" style="fill:#4e4e4e"/><polygon points="842.89 387.93 789.08 418.61 842.89 468.04 842.89 387.93" style="fill:#430642"/><polygon points="789.08 418.61 789.08 484.62 842.89 468.04 789.08 418.61" style="fill:#450844"/><polygon points="842.89 468.04 842.89 521.83 789.08 484.62 842.89 468.04" style="fill:#430642"/><polygon points="842.89 521.83 789.08 544.25 789.08 484.62 842.89 521.83" style="fill:#450844"/><polygon points="842.89 521.83 842.89 576.76 789.08 544.25 842.89 521.83" style="fill:#450743"/><polygon points="842.89 576.76 762.84 592.4 789.08 544.25 842.89 576.76" style="fill:#470a45"/><polygon points="842.89 576.76 842.89 592.4 762.84 592.4 842.89 576.76" style="fill:#430541"/><polygon points="762.84 592.4 707.9 544.25 789.08 544.25 762.84 592.4" style="fill:#410340"/><polygon points="707.9 544.25 652.16 592.4 762.84 592.4 707.9 544.25" style="fill:#470a45"/><polygon points="652.16 592.4 621.63 544.25 707.9 544.25 652.16 592.4" style="fill:#470a45"/><polygon points="621.63 544.25 542.01 592.44 652.16 592.4 621.63 544.25" style="fill:#410f3f"/><polygon points="526.23 544.25 542.01 592.44 621.63 544.25 526.23 544.25" style="fill:#41023f"/><polygon points="526.23 544.25 451.51 592.44 542.01 592.44 526.23 544.25" style="fill:#4a1037"/><polygon points="526.23 544.25 413.17 544.25 451.51 592.44 526.23 544.25" style="fill:#410f3f"/><polygon points="413.17 544.25 327.46 592.44 451.51 592.44 413.17 544.25" style="fill:#430541"/><polygon points="0 205.21 55.11 173.78 0 137.16 0 205.21" style="fill:#d81f26"/><polygon points="55.11 173.78 55.11 107.78 0 137.16 55.11 173.78" style="fill:#e21e26"/><polygon points="0 137.16 0 82.5 55.11 107.78 0 137.16" style="fill:#da1f26"/><polygon points="0 82.5 54.7 48.15 55.11 107.78 0 82.5" style="fill:#e01f26"/><polygon points="0 82.5 0 15.1 54.7 48.15 0 82.5" style="fill:#c42027"/><polygon points="0 15.1 62.96 0 54.7 48.15 0 15.1" style="fill:#c72127"/><polygon points="0 15.1 0 0 62.96 0 0 15.1" style="fill:#bd2026"/><polygon points="62.37 0 137.29 48.15 54.11 48.15 62.37 0" style="fill:#d12027"/><polygon points="137.29 48.15 173.92 0 62.37 0 137.29 48.15" style="fill:#c72127"/><polygon points="173.92 0 223.55 48.15 137.29 48.15 173.92 0" style="fill:#c82127"/><polygon points="223.55 48.15 282.06 0 173.92 0 223.55 48.15" style="fill:#b62025"/><polygon points="318.96 48.15 282.06 0 223.55 48.15 318.96 48.15" style="fill:#ba2026"/><polygon points="318.96 48.15 368.67 0 282.06 0 318.96 48.15" style="fill:#a81f22"/><polygon points="318.96 48.15 432.01 48.15 368.67 0 318.96 48.15" style="fill:#b82025"/><polygon points="432.01 48.15 517.66 0 368.67 0 432.01 48.15" style="fill:#bd2026"/><path d="M790.55,193.4h-2.94V50H640.35V47.09H789.11a1.47,1.47,0,0,1,1.47,1.47V193.4h0Z" transform="translate(0 -0.91)" style="fill:#4a1037"/><path d="M204,546.74H55.22a1.47,1.47,0,0,1-1.47-1.47V400.43h2.94V543.8H204v2.94h0Z" transform="translate(0 -0.91)" style="fill:#841719"/></svg>