<svg id="7e6f0f85-5012-405f-9087-47d0bafd4fee" data-name="7eb83171-5518-486b-8ea3-e8a615745c9b" xmlns="http://www.w3.org/2000/svg" xmlns:xlink="http://www.w3.org/1999/xlink" width="869.66" height="624.26" viewBox="0 0 869.66 624.26"><defs><clipPath id="0a60db02-da52-459d-a3dd-e97ced2128f1"><rect x="13.43" y="14.38" width="841.89" height="595.5" style="fill:none"/></clipPath></defs><title>template</title><g style="clip-path:url(#0a60db02-da52-459d-a3dd-e97ced2128f1)"><rect x="68.35" y="62.09" width="732.04" height="497.61" style="fill:#e6e8e9"/><polygon points="809.93 290.09 809.93 230.13 740.63 257.9 809.93 290.09" style="fill:#ae1f23"/><polygon points="740.63 322.07 740.63 278.61 790.86 298.74 740.63 322.07" style="fill:#c82127"/><polygon points="820.31 275.26 820.31 244.96 855.32 258.99 820.31 275.26" style="fill:#c72127"/><polygon points="58.82 231.77 58.82 291.73 128.12 263.97 58.82 231.77" style="fill:#ae1f23"/><polygon points="48.44 246.6 48.44 276.9 13.43 262.87 48.44 246.6" style="fill:#c72127"/><rect x="190.92" y="503.73" width="170.83" height="1.07" style="fill:#4e4e4e"/><rect x="507" y="503.73" width="170.83" height="1.07" style="fill:#4e4e4e"/><rect x="226.46" y="260.64" width="415.83" height="1" style="fill:#4e4e4e"/><polygon points="869.66 393.03 800.4 432.52 869.66 478.54 869.66 393.03" style="fill:#d81f26"/><polygon points="800.4 432.52 800.4 499.88 869.66 478.54 800.4 432.52" style="fill:#e21e26"/><polygon points="869.66 478.54 869.66 531.89 800.4 499.88 869.66 478.54" style="fill:#da1f26"/><polygon points="869.66 531.89 800.4 560.74 800.4 499.88 869.66 531.89" style="fill:#e01f26"/><polygon points="869.66 531.89 869.66 602.59 800.4 560.74 869.66 531.89" style="fill:#c42027"/><polygon points="869.66 602.59 789.57 623.86 800.4 560.74 869.66 602.59" style="fill:#c72127"/><polygon points="869.66 602.59 869.66 624.26 789.57 623.86 869.66 602.59" style="fill:#bd2026"/><polygon points="789.57 623.86 717.55 560.74 800.4 560.74 789.57 623.86" style="fill:#d12027"/><polygon points="717.55 560.74 669.53 623.86 789.57 623.86 717.55 560.74" style="fill:#c72127"/><polygon points="669.53 623.86 629.51 560.74 717.55 560.74 669.53 623.86" style="fill:#c82127"/><polygon points="629.51 560.74 552.82 623.86 669.53 623.86 629.51 560.74" style="fill:#b62025"/><polygon points="532.14 560.74 552.82 623.86 629.51 560.74 532.14 560.74" style="fill:#ba2026"/><polygon points="532.14 560.74 466.98 623.86 552.82 623.86 532.14 560.74" style="fill:#a81f22"/><polygon points="532.14 560.74 416.76 560.74 466.98 623.86 532.14 560.74" style="fill:#b82025"/><polygon points="416.76 560.74 304.49 623.86 466.98 623.86 416.76 560.74" style="fill:#bd2026"/><polygon points="0 231.23 69.26 191.74 0 145.72 0 231.23" style="fill:#d81f26"/><polygon points="69.26 191.74 69.26 124.38 0 145.72 69.26 191.74" style="fill:#e21e26"/><polygon points="0 145.72 0 92.37 69.26 124.38 0 145.72" style="fill:#da1f26"/><polygon points="0 92.37 69.26 63.52 69.26 124.38 0 92.37" style="fill:#e01f26"/><polygon points="13.43 86.77 13.43 29.79 69.26 63.52 13.43 86.77" style="fill:#c42027"/><polygon points="0 21.67 80.08 0.4 69.26 63.52 0 21.67" style="fill:#c72127"/><polygon points="0 21.67 0 0 80.08 0.4 0 21.67" style="fill:#bd2026"/><polygon points="80.08 0.4 152.11 63.52 69.26 63.52 80.08 0.4" style="fill:#d12027"/><polygon points="152.11 63.52 200.13 0.4 80.08 0.4 152.11 63.52" style="fill:#c72127"/><polygon points="200.13 0.4 240.14 63.52 152.11 63.52 200.13 0.4" style="fill:#c82127"/><polygon points="240.14 63.52 316.84 0.4 200.13 0.4 240.14 63.52" style="fill:#b62025"/><polygon points="337.52 63.52 316.84 0.4 240.14 63.52 337.52 63.52" style="fill:#ba2026"/><polygon points="337.52 63.52 402.68 0.4 316.84 0.4 337.52 63.52" style="fill:#a81f22"/><polygon points="337.52 63.52 452.89 63.52 402.68 0.4 337.52 63.52" style="fill:#b82025"/><polygon points="452.89 63.52 565.17 0.4 402.68 0.4 452.89 63.52" style="fill:#bd2026"/><path d="M801.9,210.83h-3V64.51H648.61v-3H800.43a1.5,1.5,0,0,1,1.5,1.5V210.83h0Z" style="fill:#841719"/><path d="M220.14,562.35H68.35a1.5,1.5,0,0,1-1.5-1.5V413h3V559.35H220.14v3h0Z" style="fill:#841719"/></g></svg>